<svg width="63" height="49" viewBox="0 0 63 49" fill="none" xmlns="http://www.w3.org/2000/svg">
<path d="M17.2083 0.807603C17.6154 0.489435 18.0786 0.25794 18.5716 0.126335C19.0645 -0.00527022 19.5775 -0.0344088 20.0813 0.040584C20.5851 0.115577 21.0697 0.293232 21.5076 0.563406C21.9454 0.83358 22.328 1.19098 22.6333 1.61521C22.9386 2.03943 23.1608 2.52217 23.2871 3.03586C23.4133 3.54955 23.4413 4.08413 23.3693 4.60908C23.2974 5.13403 23.1269 5.63906 22.8676 6.09536C22.6084 6.55165 22.2654 6.95026 21.8583 7.26843C15.7978 12.005 12.3258 16.6124 10.3379 20.6343C13.0673 19.9021 15.9479 20.0742 18.5791 21.1267C21.2103 22.1792 23.4615 24.0598 25.0198 26.507C26.5781 28.9542 27.3661 31.8466 27.2742 34.782C27.1823 37.7174 26.2151 40.5501 24.507 42.8863C22.7989 45.2224 20.4349 46.9461 17.7434 47.8176C15.0519 48.6891 12.1668 48.6652 9.48895 47.7492C6.81112 46.8332 4.47365 45.0706 2.80145 42.7064C1.12925 40.3422 0.205394 37.4939 0.158288 34.5573C-0.338246 29.5984 0.337586 24.5881 2.12679 19.9639C4.44016 13.8827 8.96229 7.25227 17.2083 0.807603ZM52.0833 0.807603C52.4904 0.489435 52.9536 0.25794 53.4466 0.126335C53.9395 -0.00527022 54.4525 -0.0344088 54.9563 0.040584C55.4601 0.115577 55.9447 0.293232 56.3826 0.563406C56.8204 0.83358 57.203 1.19098 57.5083 1.61521C57.8136 2.03943 58.0358 2.52217 58.1621 3.03586C58.2883 3.54955 58.3163 4.08413 58.2443 4.60908C58.1724 5.13403 58.0019 5.63906 57.7426 6.09536C57.4834 6.55165 57.1404 6.95026 56.7333 7.26843C50.6728 12.005 47.2008 16.6124 45.2129 20.6343C47.9423 19.9021 50.8229 20.0742 53.4541 21.1267C56.0853 22.1792 58.3365 24.0598 59.8948 26.507C61.4531 28.9542 62.2411 31.8466 62.1492 34.782C62.0573 37.7174 61.0901 40.5501 59.382 42.8863C57.6739 45.2224 55.3099 46.9461 52.6184 47.8176C49.9269 48.6891 47.0418 48.6652 44.3639 47.7492C41.6861 46.8332 39.3487 45.0706 37.6765 42.7064C36.0043 40.3422 35.0804 37.4939 35.0333 34.5573C34.5368 29.5984 35.2126 24.5881 37.0018 19.9639C39.319 13.8827 43.8373 7.25227 52.0833 0.807603V0.807603Z" fill="#74DCAF" fill-opacity="0.6"/>
</svg>
