<svg width="361" height="419" viewBox="0 0 361 419" fill="none" xmlns="http://www.w3.org/2000/svg">
<path fill-rule="evenodd" clip-rule="evenodd" d="M20 180.5C20 91.8583 91.8583 20 180.5 20C269.142 20 341 91.8583 341 180.5C341 212.827 331.443 242.921 315 268.113V135V119H307V108H222V119H215V135V301H147V143V127V119H139V108H54V119H47V127V143V269.626C29.9452 244.131 20 213.477 20 180.5ZM47 301.984C17.8011 269.916 0 227.287 0 180.5C0 80.8126 80.8126 0 180.5 0C280.187 0 361 80.8126 361 180.5C361 226.75 343.605 268.938 315 300.877V301V363V419H47V363V301.984ZM207 346C207 350.981 205.599 355.636 203.17 359.59C198.596 367.035 190.378 372 181 372C171.678 372 163.501 367.094 158.912 359.722C156.432 355.74 155 351.037 155 346C155 343.622 155.319 341.318 155.917 339.129C158.931 328.104 169.019 320 181 320C192.927 320 202.978 328.03 206.041 338.979C206.666 341.212 207 343.567 207 346ZM76 143H91V243H76V143ZM118 143H103V243H118V143ZM244 135H259V235H244V135ZM286 135H271V235H286V135Z" fill="black"/>
</svg>
