<svg width="361" height="419" viewBox="0 0 361 419" fill="none" xmlns="http://www.w3.org/2000/svg">
<path fill-rule="evenodd" clip-rule="evenodd" d="M259.953 419H103.047L47 365.419V363V301.984C17.8011 269.916 0 227.287 0 180.5C0 80.8126 80.8126 0 180.5 0C280.187 0 361 80.8126 361 180.5C361 226.75 343.605 268.938 315 300.877V301V363V366.375L259.953 419ZM180.5 20C91.8583 20 20 91.8583 20 180.5C20 213.477 29.9452 244.131 47 269.626V143V127V119H54V108H139V119H147V127V143V301H215V135V119H222V108H307V119H315V135V268.113C331.443 242.921 341 212.827 341 180.5C341 91.8583 269.142 20 180.5 20ZM203.17 359.59C205.599 355.636 207 350.981 207 346C207 343.567 206.666 341.212 206.041 338.979C202.978 328.03 192.927 320 181 320C169.019 320 158.931 328.104 155.917 339.129C155.319 341.318 155 343.622 155 346C155 351.037 156.432 355.74 158.912 359.722C163.501 367.094 171.678 372 181 372C190.378 372 198.596 367.035 203.17 359.59ZM91 143H76V243H91V143ZM103 143H118V243H103V143ZM259 135H244V235H259V135ZM271 135H286V235H271V135Z" fill="#5306D0"/>
</svg>
